<!-- Streaming-service icon symbols, defined once and referenced via <use href="#ic-..."/>.
     Monochrome single-color glyphs; they inherit fill from the linking element's CSS. -->
<svg width="0" height="0" style="position:absolute" aria-hidden="true" focusable="false">
  <symbol id="ic-bandcamp" viewBox="0 0 24 24"><path d="M0 18.75l7.437-13.5H24l-7.438 13.5H0z"/></symbol>
  <symbol id="ic-apple" viewBox="0 0 24 24"><path d="M23.994 6.124a9.23 9.23 0 00-.24-2.19c-.317-1.31-1.062-2.31-2.18-3.043a5.022 5.022 0 00-1.877-.726 10.496 10.496 0 00-1.564-.15c-.04-.003-.083-.01-.124-.013H5.986c-.152.01-.303.017-.455.026-.747.043-1.49.123-2.193.4-1.336.53-2.3 1.452-2.865 2.78-.192.448-.292.925-.363 1.408-.056.392-.088.785-.1 1.18 0 .032-.007.062-.01.093v12.223c.01.14.017.283.027.424.05.815.154 1.624.497 2.373.65 1.42 1.738 2.353 3.234 2.801.42.127.856.187 1.293.228.555.053 1.11.06 1.667.06h11.03a12.5 12.5 0 001.57-.1c.822-.106 1.596-.35 2.295-.81a5.046 5.046 0 001.88-2.207c.186-.42.293-.87.37-1.324.113-.675.138-1.358.137-2.04-.002-3.8 0-7.595-.003-11.393zm-6.423 3.99v5.712c0 .417-.058.827-.244 1.206-.29.59-.76.962-1.388 1.14-.35.1-.706.157-1.07.173-.95.045-1.773-.6-1.943-1.536a1.88 1.88 0 011.038-2.022c.323-.16.67-.25 1.018-.324.378-.082.758-.153 1.134-.24.274-.063.457-.23.51-.516a.904.904 0 00.02-.193c0-1.815 0-3.63-.002-5.443a.725.725 0 00-.026-.185c-.04-.15-.15-.243-.304-.234-.16.01-.318.035-.475.066-.76.15-1.52.303-2.28.456l-2.325.47-1.374.278c-.016.003-.032.01-.048.013-.277.077-.377.203-.39.49-.002.042 0 .086 0 .13-.002 2.602 0 5.204-.003 7.805 0 .42-.047.836-.215 1.227-.278.64-.77 1.04-1.434 1.233-.35.1-.71.16-1.075.172-.96.036-1.755-.6-1.92-1.544-.14-.812.23-1.685 1.154-2.075.357-.15.73-.232 1.108-.31.287-.06.575-.116.86-.177.383-.083.583-.323.6-.714v-.15c0-2.96 0-5.922.002-8.882 0-.123.013-.25.042-.37.07-.285.273-.448.546-.518.255-.066.515-.112.774-.165.733-.15 1.466-.296 2.2-.444l2.27-.46c.67-.134 1.34-.27 2.01-.403.22-.043.442-.088.663-.106.31-.025.523.17.554.482.008.073.012.148.012.223.002 1.91.002 3.822 0 5.732z"/></symbol>
  <symbol id="ic-spotify" viewBox="0 0 24 24"><path d="M12 0C5.4 0 0 5.4 0 12s5.4 12 12 12 12-5.4 12-12S18.66 0 12 0zm5.521 17.34c-.24.359-.66.48-1.021.24-2.82-1.74-6.36-2.101-10.561-1.141-.418.122-.779-.179-.899-.539-.12-.421.18-.78.54-.9 4.56-1.021 8.52-.6 11.64 1.32.42.18.479.659.301 1.02zm1.44-3.3c-.301.42-.841.6-1.262.3-3.239-1.98-8.159-2.58-11.939-1.38-.479.12-1.02-.12-1.14-.6-.12-.48.12-1.021.6-1.141C9.6 9.9 15 10.561 18.72 12.84c.361.181.54.78.241 1.2zm.12-3.36C15.24 8.4 8.82 8.16 5.16 9.301c-.6.179-1.2-.181-1.38-.721-.18-.601.18-1.2.72-1.381 4.26-1.26 11.28-1.02 15.721 1.621.539.3.719 1.02.419 1.56-.299.421-1.02.599-1.559.3z"/></symbol>
  <symbol id="ic-amazon" viewBox="29 25 450 450"><path d="M48.48,378.73a300.52,300.52,0,0,0,152.89,95.92,262.57,262.57,0,0,0,159.3-17.25,225.52,225.52,0,0,0,66.79-47,6.36,6.36,0,0,0-2-8.53,11.76,11.76,0,0,0-8-.05,401.92,401.92,0,0,1-116.55,39.34,358.13,358.13,0,0,1-127.29-8.83,446.73,446.73,0,0,1-119.1-60.49,5,5,0,0,0-6.06,6.9Z"/><path d="M387.15,388.44a168.11,168.11,0,0,1,48.94-2.23l.67.13a10,10,0,0,1,7.37,12.05A204.71,204.71,0,0,1,429,444.47a2.55,2.55,0,0,0,1.66,3.18,2.51,2.51,0,0,0,2.23-.37A83.31,83.31,0,0,0,464,382.86a12.44,12.44,0,0,0-10.22-13.22A95.75,95.75,0,0,0,384.91,384a2.55,2.55,0,0,0-.57,3.55A2.52,2.52,0,0,0,387.15,388.44Z"/><path d="M304.24,324.92a164,164,0,0,1-28.92,25.3A135.16,135.16,0,0,1,208.63,369a99.49,99.49,0,0,1-57.49-19.85,97.25,97.25,0,0,1-27.36-100.28,112.35,112.35,0,0,1,65.3-69.06,367.67,367.67,0,0,1,104.7-15.55V127A37.82,37.82,0,0,0,261,94.72a59.9,59.9,0,0,0-31.17,4.08,48.89,48.89,0,0,0-27.13,34.67,12,12,0,0,1-12.58,6.72l-50.9-4.5a11.38,11.38,0,0,1-8.38-10.16,103.66,103.66,0,0,1,36.61-63.45A143.86,143.86,0,0,1,257.85,32a146.24,146.24,0,0,1,84.27,27.67,86.82,86.82,0,0,1,30.7,70.22V258.8a84.46,84.46,0,0,0,8,31.28l15.87,23.23a13,13,0,0,1,0,11.23L349.7,364.25a12.5,12.5,0,0,1-12.68-.44A244.84,244.84,0,0,1,304.24,324.92Zm-10.6-116.83a257.68,257.68,0,0,0-44,2.89A63,63,0,0,0,208,242.54a63,63,0,0,0,3.07,54,40.6,40.6,0,0,0,47.11,12.19,78.61,78.61,0,0,0,35.46-55.58V208.09"/></symbol>
  <symbol id="ic-youtube" viewBox="0 0 24 24"><path d="M12 0C5.376 0 0 5.376 0 12s5.376 12 12 12 12-5.376 12-12S18.624 0 12 0zm0 19.104c-3.924 0-7.104-3.18-7.104-7.104S8.076 4.896 12 4.896s7.104 3.18 7.104 7.104-3.18 7.104-7.104 7.104zm0-13.332c-3.432 0-6.228 2.796-6.228 6.228S8.568 18.228 12 18.228s6.228-2.796 6.228-6.228S15.432 5.772 12 5.772zM9.684 15.54V8.46L15.816 12l-6.132 3.54z"/></symbol>
  <symbol id="ic-pandora" viewBox="0 0 24 24"><path d="M1.882 0v24H8.32a1.085 1.085 0 001.085-1.085v-4.61h1.612c7.88 0 11.103-4.442 11.103-9.636C22.119 2.257 17.247 0 12.662 0H1.882Z"/></symbol>
  <symbol id="ic-soundcloud" viewBox="0 0 24 24"><path d="M23.999 14.165c-.052 1.796-1.612 3.169-3.4 3.169h-8.18a.68.68 0 0 1-.675-.683V7.862a.747.747 0 0 1 .452-.724s.75-.513 2.333-.513a5.364 5.364 0 0 1 2.763.755 5.433 5.433 0 0 1 2.57 3.54c.282-.08.574-.121.868-.12.884 0 1.73.358 2.347.992s.948 1.49.922 2.373ZM10.721 8.421c.247 2.98.427 5.697 0 8.672a.264.264 0 0 1-.53 0c-.395-2.946-.22-5.718 0-8.672a.264.264 0 0 1 .53 0ZM9.072 9.448c.285 2.659.37 4.986-.006 7.655a.277.277 0 0 1-.55 0c-.331-2.63-.256-5.02 0-7.655a.277.277 0 0 1 .556 0Zm-1.663-.257c.27 2.726.39 5.171 0 7.904a.266.266 0 0 1-.532 0c-.38-2.69-.257-5.21 0-7.904a.266.266 0 0 1 .532 0Zm-1.647.77a26.108 26.108 0 0 1-.008 7.147.272.272 0 0 1-.542 0 27.955 27.955 0 0 1 0-7.147.275.275 0 0 1 .55 0Zm-1.67 1.769c.421 1.865.228 3.5-.029 5.388a.257.257 0 0 1-.514 0c-.21-1.858-.398-3.549 0-5.389a.272.272 0 0 1 .543 0Zm-1.655-.273c.388 1.897.26 3.508-.01 5.412-.026.28-.514.283-.54 0-.244-1.878-.347-3.54-.01-5.412a.283.283 0 0 1 .56 0Zm-1.668.911c.4 1.268.257 2.292-.026 3.572a.257.257 0 0 1-.514 0c-.241-1.262-.354-2.312-.023-3.572a.283.283 0 0 1 .563 0Z"/></symbol>
  <symbol id="ic-iheart" viewBox="2.5 -2.5 19 16"><path d="M4.403 21.983c.597 0 1.023-.306 1.023-.817v-.012c0-.489-.375-.784-1.017-.784H3.182v1.613zm-1.67-1.8c0-.125.102-.228.221-.228h1.489c.488 0 .88.148 1.13.398.193.193.307.472.307.784v.011c0 .654-.443 1.034-1.062 1.154l.988 1.272c.046.051.074.102.074.164 0 .12-.114.222-.227.222-.091 0-.16-.05-.21-.12l-1.12-1.453H3.182v1.346a.228.228 0 01-.228.227.227.227 0 01-.221-.227v-3.55m6.674 2.29l-.914-2.035-.915 2.034zm-2.812 1.164l1.614-3.528c.056-.125.142-.2.284-.2h.022c.137 0 .228.075.279.2l1.613 3.522a.31.31 0 01.029.113c0 .12-.097.216-.216.216-.108 0-.182-.074-.222-.165l-.415-.914H7.402l-.415.926c-.04.097-.113.153-.216.153a.204.204 0 01-.204-.204.26.26 0 01.028-.12m6.078-.118c1.005 0 1.647-.682 1.647-1.563v-.011c0-.88-.642-1.574-1.647-1.574h-.932v3.148zm-1.38-3.335c0-.125.102-.228.221-.228h1.16c1.249 0 2.112.858 2.112 1.977v.012c0 1.119-.863 1.988-2.113 1.988h-1.159a.226.226 0 01-.221-.227v-3.522m4.481-.029c0-.124.103-.227.222-.227.125 0 .227.103.227.227v3.579a.228.228 0 01-.227.227.227.227 0 01-.222-.227v-3.579m5.027 1.801v-.011c0-.904-.659-1.642-1.568-1.642s-1.556.727-1.556 1.63v.012c0 .903.659 1.642 1.567 1.642.91 0 1.557-.728 1.557-1.631zm-3.59 0v-.011c0-1.097.824-2.057 2.033-2.057 1.21 0 2.023.949 2.023 2.045v.012c0 1.096-.824 2.056-2.034 2.056s-2.022-.949-2.022-2.045m2.03-17.192c0 1.397-.754 2.773-2.242 4.092a.345.345 0 01-.458-.517c1.333-1.182 2.01-2.385 2.01-3.575v-.016c0-.966-.606-2.103-1.38-2.588a.345.345 0 11.367-.586c.97.61 1.703 1.974 1.703 3.174zM14.76 7.677a.345.345 0 11-.337-.602c.799-.448 1.336-1.318 1.339-2.167a2.096 2.096 0 00-1.124-1.855.345.345 0 11.321-.611 2.785 2.785 0 011.493 2.46v.011c-.004 1.09-.683 2.199-1.692 2.764zm-2.772-1.015a1.498 1.498 0 11.001-2.997 1.498 1.498 0 01-.001 2.997zm-2.303.882a.345.345 0 01-.47.133c-1.009-.565-1.688-1.674-1.692-2.764v-.01a2.785 2.785 0 011.493-2.461.346.346 0 01.321.611 2.096 2.096 0 00-1.124 1.855c.003.849.54 1.719 1.34 2.166a.345.345 0 01.132.47zM7.464 8.825a.344.344 0 01-.488.03C5.49 7.536 4.734 6.16 4.734 4.763v-.016c0-1.2.732-2.564 1.703-3.174a.346.346 0 01.367.586c-.774.485-1.38 1.622-1.38 2.588v.016c0 1.19.677 2.393 2.01 3.575a.345.345 0 01.03.487zM16.152 0c-1.727 0-3.27.915-4.164 2.252C11.094.915 9.55 0 7.823 0A4.982 4.982 0 002.84 4.983c0 1.746 1.106 3.005 2.261 4.17l4.518 4.272a.371.371 0 00.626-.27V9.827c0-.963.78-1.743 1.743-1.745a1.745 1.745 0 011.742 1.745v3.328c0 .326.39.493.626.27l4.518-4.272c1.155-1.165 2.261-2.424 2.261-4.17A4.982 4.982 0 0016.152 0"/></symbol>
  <symbol id="ic-deezer" viewBox="0 0 24 24"><path d="M.693 10.024c.381 0 .693-1.256.693-2.807 0-1.55-.312-2.807-.693-2.807C.312 4.41 0 5.666 0 7.217s.312 2.808.693 2.808ZM21.038 1.56c-.364 0-.684.805-.91 2.096C19.765 1.446 19.184 0 18.526 0c-.78 0-1.464 2.036-1.784 5-.312-2.158-.788-3.536-1.325-3.536-.745 0-1.386 2.704-1.62 6.472-.442-1.932-1.083-3.145-1.793-3.145s-1.35 1.213-1.793 3.145c-.242-3.76-.874-6.463-1.628-6.463-.537 0-1.013 1.378-1.325 3.535C6.938 2.036 6.262 0 5.474 0c-.658 0-1.247 1.447-1.602 3.665-.217-1.291-.546-2.105-.91-2.105-.675 0-1.221 2.807-1.221 6.272 0 3.466.546 6.273 1.221 6.273.277 0 .537-.476.736-1.273.32 2.928.996 4.938 1.776 4.938.606 0 1.143-1.204 1.507-3.11.251 3.622.875 6.195 1.602 6.195.46 0 .875-1.023 1.187-2.677C10.142 21.6 11 24 12.004 24c1.005 0 1.863-2.4 2.235-5.822.312 1.654.727 2.677 1.186 2.677.728 0 1.352-2.573 1.603-6.195.364 1.906.9 3.11 1.507 3.11.78 0 1.455-2.01 1.775-4.938.208.797.46 1.273.737 1.273.675 0 1.22-2.807 1.22-6.273-.008-3.457-.553-6.272-1.23-6.272ZM23.307 10.024c.381 0 .693-1.256.693-2.807 0-1.55-.312-2.807-.693-2.807-.381 0-.693 1.256-.693 2.807s.312 2.808.693 2.808Z"/></symbol>
  <symbol id="ic-tidal" viewBox="0 0 24 24"><path d="M12.012 3.992L8.008 7.996 4.004 3.992 0 7.996 4.004 12l4.004-4.004L12.012 12l-4.004 4.004 4.004 4.004 4.004-4.004L12.012 12l4.004-4.004-4.004-4.004zM16.042 7.996l3.979-3.979L24 7.996l-3.979 3.979z"/></symbol>
  <!-- "elsewhere" row (social) -->
  <symbol id="ic-instagram" viewBox="0 0 24 24"><path d="M12 2.163c3.204 0 3.584.012 4.85.07 3.252.148 4.771 1.691 4.919 4.919.058 1.265.069 1.645.069 4.849 0 3.205-.012 3.584-.069 4.849-.149 3.225-1.664 4.771-4.919 4.919-1.266.058-1.644.07-4.85.07-3.204 0-3.584-.012-4.849-.07-3.26-.149-4.771-1.699-4.919-4.92-.058-1.265-.07-1.644-.07-4.849 0-3.204.013-3.583.07-4.849.149-3.227 1.664-4.771 4.919-4.919 1.266-.057 1.645-.069 4.849-.069zM12 0C8.741 0 8.333.014 7.053.072 2.695.272.273 2.69.073 7.052.014 8.333 0 8.741 0 12c0 3.259.014 3.668.072 4.948.2 4.358 2.618 6.78 6.98 6.98C8.333 23.986 8.741 24 12 24c3.259 0 3.668-.014 4.948-.072 4.354-.2 6.782-2.618 6.979-6.98.059-1.28.073-1.689.073-4.948 0-3.259-.014-3.667-.072-4.947-.196-4.354-2.617-6.78-6.979-6.98C15.668.014 15.259 0 12 0zm0 5.838a6.162 6.162 0 100 12.324 6.162 6.162 0 000-12.324zM12 16a4 4 0 110-8 4 4 0 010 8zm6.406-11.845a1.44 1.44 0 100 2.881 1.44 1.44 0 000-2.881z"/></symbol>
  <symbol id="ic-twitch" viewBox="0 0 24 24"><path d="M11.571 4.714h1.715v5.143H11.57zm4.715 0H18v5.143h-1.714zM6 0L1.714 4.286v15.428h5.143V24l4.286-4.286h3.428L22.286 12V0zm14.571 11.143l-3.428 3.428h-3.429l-3 3v-3H6.857V1.714h13.714Z"/></symbol>
  <symbol id="ic-youtube-ch" viewBox="0 0 24 24"><path d="M23.498 6.186a3.016 3.016 0 00-2.122-2.136C19.505 3.545 12 3.545 12 3.545s-7.505 0-9.377.505A3.017 3.017 0 00.502 6.186C0 8.07 0 12 0 12s0 3.93.502 5.814a3.016 3.016 0 002.122 2.136c1.871.505 9.376.505 9.376.505s7.505 0 9.377-.505a3.015 3.015 0 002.122-2.136C24 15.93 24 12 24 12s0-3.93-.502-5.814zM9.545 15.568V8.432L15.818 12l-6.273 3.568z"/></symbol>
  <symbol id="ic-lastfm" viewBox="0 0 24 24"><path d="M10.584 17.21l-.88-2.392s-1.43 1.594-3.573 1.594c-1.897 0-3.244-1.649-3.244-4.288 0-3.382 1.704-4.591 3.381-4.591 2.42 0 3.189 1.567 3.849 3.574l.88 2.749c.88 2.666 2.529 4.81 7.285 4.81 3.409 0 5.718-1.044 5.718-3.793 0-2.227-1.265-3.381-3.63-3.931l-1.758-.385c-1.21-.275-1.567-.77-1.567-1.595 0-.934.742-1.484 1.952-1.484 1.32 0 2.034.495 2.144 1.677l2.749-.33c-.22-2.474-1.924-3.492-4.729-3.492-2.474 0-4.893.935-4.893 3.932 0 1.87.907 3.051 3.189 3.601l1.87.44c1.402.33 1.869.907 1.869 1.704 0 1.017-.99 1.43-2.86 1.43-2.776 0-3.93-1.457-4.59-3.464l-.907-2.75c-1.155-3.573-2.997-4.893-6.653-4.893C2.144 5.333 0 7.89 0 12.233c0 4.18 2.144 6.434 5.993 6.434 3.106 0 4.591-1.457 4.591-1.457z"/></symbol>
  <symbol id="ic-egg" viewBox="2 2 20 20"><path d="M12 22C16.4183 22 20 18.4183 20 14C20 9.58172 16.4183 2 12 2C7.58172 2 4 9.58172 4 14C4 18.4183 7.58172 22 12 22Z"/></symbol>
</svg>
